<svg width="52" height="40" viewBox="0 0 52 40" fill="none" xmlns="http://www.w3.org/2000/svg">
<path d="M24.7911 11.4084C24.7911 9.8435 24.468 8.37246 23.8219 6.9953C23.1417 5.61815 22.249 4.41314 21.1438 3.38028C20.0386 2.34742 18.7208 1.53365 17.1905 0.938965C15.6942 0.312988 14.0959 0 12.3955 0C10.6952 0 9.09685 0.312988 7.60055 0.938965C6.07024 1.53365 4.74397 2.34742 3.62174 3.38028C2.49951 4.41314 1.61533 5.61815 0.969198 6.9953C0.323066 8.37246 0 9.8435 0 11.4084C0 13.0047 0.323066 14.4914 0.969198 15.8685C1.61533 17.2457 2.49951 18.4507 3.62174 19.4836C4.74397 20.5164 6.05323 21.3302 7.54954 21.9249C9.07985 22.5196 10.6952 22.8169 12.3955 22.8169C12.8036 22.8169 13.2117 22.8013 13.6198 22.77C14.0279 22.7387 14.4529 22.6761 14.895 22.5822C14.521 24.0845 14.0619 25.5086 13.5178 26.8545C13.0077 28.2003 12.4635 29.4523 11.8854 30.6103C11.3073 31.7684 10.7292 32.8326 10.1511 33.8028C9.57295 34.7418 9.07985 35.5556 8.67177 36.2441C8.43372 36.5884 8.22968 36.9092 8.05964 37.2066C7.88961 37.5039 7.73658 37.7621 7.60055 37.9812C7.49853 38.169 7.39651 38.4429 7.29449 38.8028C7.19247 39.1628 7.31149 39.4679 7.65156 39.7183C7.75358 39.8122 7.8641 39.8826 7.98313 39.9296C8.10215 39.9765 8.22968 40 8.3657 40C8.60375 40 8.86731 39.9296 9.15637 39.7887C9.44543 39.6479 9.70898 39.4992 9.94703 39.3427C10.2871 39.1549 10.7122 38.8967 11.2223 38.5681C11.7324 38.2394 12.3955 37.7934 13.2117 37.23L13.2627 37.1831C14.725 35.9937 16.0513 34.7027 17.2415 33.3099C18.4318 31.9171 19.486 30.4538 20.4042 28.9202C21.1523 27.6682 21.8069 26.3615 22.3681 25C22.9292 23.6385 23.3968 22.2379 23.7708 20.7981C24.383 18.482 24.7145 16.471 24.7655 14.7653C24.8166 13.0595 24.8251 11.9405 24.7911 11.4084ZM21.9345 20.3756C21.5264 21.9092 21.0163 23.3959 20.4042 24.8357C19.792 26.2441 19.0779 27.5978 18.2617 28.8967C17.4456 30.1956 16.5104 31.4241 15.4562 32.5822C14.4359 33.7402 13.3137 34.82 12.0895 35.8216C11.8854 35.9781 11.6304 36.1581 11.3243 36.3615C11.0182 36.5649 10.6952 36.7762 10.3551 36.9953C10.8312 36.2128 11.3923 35.2895 12.0385 34.2254C12.6506 33.1612 13.2797 31.9718 13.9258 30.6573C14.572 29.3427 15.1671 27.9186 15.7112 26.385C16.2893 24.8513 16.7314 23.2238 17.0375 21.5023L17.2925 20.0469L15.8132 20.5634C15.2351 20.7199 14.6655 20.8451 14.1044 20.939C13.5433 21.0329 12.9736 21.0798 12.3955 21.0798C10.9672 21.0798 9.60696 20.8294 8.31469 20.3286C7.05644 19.8279 5.95121 19.1393 4.99902 18.2629C4.04682 17.3865 3.29867 16.3537 2.75456 15.1643C2.21045 14.0063 1.9384 12.7543 1.9384 11.4084C1.9384 10.0939 2.21045 8.84194 2.75456 7.65258C3.29867 6.49452 4.04682 5.47731 4.99902 4.60094C5.95121 3.72457 7.05644 3.03599 8.31469 2.53521C9.57295 2.03443 10.9332 1.78403 12.3955 1.78403C13.8238 1.78403 15.1841 2.03443 16.4764 2.53521C17.7346 3.03599 18.8398 3.72457 19.792 4.60094C20.7442 5.47731 21.4924 6.49452 22.0365 7.65258C22.6146 8.81064 22.9037 10.0626 22.9037 11.4084V11.4554C22.9037 11.4867 22.9037 11.5023 22.9037 11.5023C22.9037 11.5023 22.9037 11.518 22.9037 11.5493C22.9377 12.0188 22.9292 13.0595 22.8782 14.6714C22.8272 16.2833 22.5126 18.1847 21.9345 20.3756ZM51.9796 11.4554C51.9796 9.85915 51.6565 8.37246 51.0104 6.9953C50.3643 5.61815 49.4801 4.41314 48.3579 3.38028C47.2356 2.34742 45.9264 1.53365 44.4301 0.938965C42.8997 0.344288 41.2844 0.0469475 39.5841 0.0469475C37.8837 0.0469475 36.2854 0.344288 34.7891 0.938965C33.2928 1.53365 31.9835 2.34742 30.8613 3.38028C29.7391 4.41314 28.8549 5.61815 28.2087 6.9953C27.5626 8.37246 27.2396 9.8435 27.2396 11.4084C27.2396 13.0047 27.5626 14.4914 28.2087 15.8685C28.8549 17.2457 29.7391 18.4507 30.8613 19.4836C31.9835 20.5164 33.2928 21.3302 34.7891 21.9249C36.2854 22.5196 37.8837 22.8169 39.5841 22.8169C39.9921 22.8169 40.4087 22.8013 40.8338 22.77C41.2589 22.7387 41.6755 22.6761 42.0836 22.5822C41.7095 24.0845 41.2674 25.5086 40.7573 26.8545C40.2132 28.2003 39.6521 29.4523 39.074 30.6103C38.4958 31.7684 37.9177 32.8169 37.3396 33.7559C36.7955 34.7261 36.3024 35.5556 35.8603 36.2441C35.6223 36.5884 35.4182 36.9014 35.2482 37.1831C35.0781 37.4648 34.9421 37.7152 34.8401 37.9343C34.7381 38.1534 34.6276 38.4429 34.5085 38.8028C34.3895 39.1628 34.5 39.4679 34.8401 39.7183C34.9421 39.8122 35.0526 39.8826 35.1717 39.9296C35.2907 39.9765 35.4182 40 35.5542 40C35.8263 40 36.0984 39.9296 36.3704 39.7887C36.6425 39.6479 36.9145 39.4992 37.1866 39.3427C37.5266 39.1549 37.9432 38.8967 38.4363 38.5681C38.9294 38.2394 39.6011 37.7934 40.4512 37.23L40.5023 37.1831C41.9305 35.9937 43.2398 34.7027 44.4301 33.3099C45.6203 31.9171 46.6745 30.4538 47.5927 28.9202C48.3409 27.6682 48.9955 26.3615 49.5566 25C50.1177 23.6385 50.5853 22.2379 50.9594 20.7981C51.5715 18.482 51.9031 16.471 51.9541 14.7653C52.0051 13.0595 52.0136 11.9562 51.9796 11.4554ZM49.123 20.3756C48.7489 21.9405 48.2388 23.4272 47.5927 24.8357C46.9806 26.2441 46.2664 27.5978 45.4503 28.8967C44.6341 30.1956 43.7159 31.4241 42.6957 32.5822C41.6415 33.7402 40.5023 34.8357 39.278 35.8685C39.074 35.9937 38.8189 36.1581 38.5128 36.3615C38.2068 36.5649 37.8837 36.7762 37.5437 36.9953C38.0197 36.2441 38.5809 35.3208 39.227 34.2254C39.8731 33.1612 40.5108 31.9718 41.1399 30.6573C41.769 29.3427 42.3556 27.9186 42.8997 26.385C43.4779 24.8513 43.92 23.2394 44.226 21.5493L44.5321 20.0939L43.0018 20.5634C42.4577 20.7199 41.8965 20.8451 41.3184 20.939C40.7403 21.0329 40.1622 21.0798 39.5841 21.0798C38.1558 21.0798 36.8125 20.8294 35.5542 20.3286C34.262 19.8279 33.1398 19.1393 32.1876 18.2629C31.2354 17.3865 30.4872 16.3537 29.9431 15.1643C29.399 14.0063 29.1269 12.7543 29.1269 11.4084C29.1269 10.0939 29.399 8.84194 29.9431 7.65258C30.4872 6.49452 31.2354 5.47731 32.1876 4.60094C33.1398 3.72457 34.245 3.03599 35.5032 2.53521C36.7955 2.03443 38.1558 1.78403 39.5841 1.78403C41.0464 1.78403 42.4066 2.03443 43.6649 2.53521C44.9572 3.03599 46.0794 3.72457 47.0316 4.60094C47.9838 5.47731 48.7319 6.49452 49.276 7.65258C49.8202 8.84194 50.0922 10.0939 50.0922 11.4084V11.5023C50.0922 11.5023 50.0922 11.5102 50.0922 11.5258C50.0922 11.5415 50.0922 11.5493 50.0922 11.5493C50.1262 12.0188 50.1177 13.0595 50.0667 14.6714C50.0157 16.2833 49.7011 18.1847 49.123 20.3756Z" fill="#202020"/>
</svg>
