<svg width="217" height="70" viewBox="0 0 217 70" fill="none" xmlns="http://www.w3.org/2000/svg">
<path d="M161.613 12.0828H158.458V15.2446H161.613V12.0828Z" fill="url(#paint0_linear_5_373)"/>
<path d="M158.457 15.2397H152.992V20.7167H158.457V15.2397Z" fill="url(#paint1_linear_5_373)"/>
<path d="M162.973 20.7168H158.458V25.2419H162.973V20.7168Z" fill="url(#paint2_linear_5_373)"/>
<path d="M61.0527 29.1928H67.7542V46.877H71.3292V29.1928H78.0307V26.1028H61.0527V29.1928Z" fill="white"/>
<path d="M70.7039 36.2341H68.3794V46.2457H70.7039V36.2341Z" fill="url(#paint3_linear_5_373)"/>
<path d="M138.749 26.1028H135.169V46.877H138.749V26.1028Z" fill="white"/>
<path d="M138.119 36H135.795V46.0116H138.119V36Z" fill="url(#paint4_linear_5_373)"/>
<path d="M85.9016 26.1028H82.3218V46.877H85.9016V26.1028Z" fill="white"/>
<path d="M85.2762 36H82.9517V46.0116H85.2762V36Z" fill="url(#paint5_linear_5_373)"/>
<path d="M105.118 43.5814C104.03 43.9976 102.961 44.208 101.968 44.208C100.646 44.208 99.4666 43.9737 98.4643 43.5288C97.4476 43.0839 96.6362 42.4621 96.0539 41.6968C95.5002 40.9601 95.0802 40.1709 94.8081 39.329C94.5408 38.4919 94.3928 37.6022 94.3928 36.679C94.3928 35.7797 94.536 34.8804 94.8081 34.0099C95.0849 33.1345 95.5097 32.307 96.0873 31.5416C96.6744 30.762 97.4954 30.121 98.5168 29.6426C99.5335 29.1739 100.693 28.9347 101.968 28.9347C103.972 28.9347 105.648 29.4704 106.946 30.5228L109.123 28.3703C107.056 26.5382 104.65 25.6055 101.973 25.6055C100.125 25.6055 98.45 25.926 96.9894 26.5526C95.5479 27.1888 94.3833 28.0354 93.5241 29.083C92.6363 30.1592 91.9633 31.3503 91.5242 32.6179C91.0803 33.8999 90.856 35.2488 90.856 36.6455C90.856 38.1236 91.0707 39.5108 91.4956 40.7736C91.9156 42.022 92.5695 43.1748 93.4239 44.1889C94.264 45.1886 95.4191 45.9875 96.851 46.5567C98.3116 47.145 100.035 47.4464 101.973 47.4464C105.003 47.4464 107.543 46.5567 109.524 44.8012L107.328 42.3521C106.712 42.84 105.972 43.2514 105.118 43.5814Z" fill="white"/>
<path d="M105.338 43.9308C104.168 44.3757 103.037 44.6005 101.963 44.6005C100.564 44.6005 99.2996 44.3518 98.2065 43.8687C97.0944 43.3808 96.1971 42.6967 95.5431 41.8357C94.9465 41.0417 94.4931 40.1855 94.2019 39.2814C93.906 38.3678 93.758 37.4111 93.758 36.4401C93.758 36.2918 93.7675 36.1483 93.7771 36H91.4908C91.486 36.1387 91.4717 36.2727 91.4717 36.4114C91.4717 37.8225 91.6769 39.1427 92.0779 40.3385C92.4693 41.5105 93.0802 42.5867 93.8917 43.5482C94.6649 44.4666 95.7341 45.2032 97.0753 45.739C98.4643 46.2986 100.111 46.5856 101.963 46.5856C104.588 46.5856 106.822 45.8872 108.612 44.5001L107.232 42.9598C106.674 43.3425 106.039 43.6678 105.338 43.9308Z" fill="url(#paint6_linear_5_373)"/>
<path d="M117.609 26.1028H114.001V46.877H117.609V26.1028Z" fill="white"/>
<path d="M116.989 36H114.631V46.0116H116.989V36Z" fill="url(#paint7_linear_5_373)"/>
<path d="M121.781 36.1335L130.239 26.1028H125.896L117.633 36.3823L117.743 36.5162L126.707 46.877H131.132L121.738 36.1814L121.781 36.1335Z" fill="white"/>
<path d="M121.118 36H118.55L118.445 36.1339L126.989 46.0164H129.738L121.261 36.3635C121.175 36.2583 121.132 36.1339 121.118 36Z" fill="url(#paint8_linear_5_373)"/>
<path d="M149.427 25.2419H144.09V47.7382H160.438V42.8065H149.427V25.2419Z" fill="white"/>
<path d="M148.802 42.5724V36H144.721V46.8774H159.813V43.199H149.427C149.079 43.199 148.802 42.9168 148.802 42.5724Z" fill="url(#paint9_linear_5_373)"/>
<path d="M193.125 25.2419V47.7382H188.595L177.98 34.0481V48.4796C177.98 52.225 175.336 55.5686 171.636 56.1187C171.278 56.1713 170.916 56.2 170.543 56.2H170.51C166.572 56.2 163.178 53.2869 163.083 49.8237C163.064 49.1349 163.05 48.4366 163.035 47.7382C162.983 45.1456 162.973 33.3115 162.973 25.2419H168.2V46.5567C168.2 46.9441 168.2 47.3412 168.214 47.7382C168.219 48.0204 168.233 48.2978 168.257 48.5753C168.381 49.9816 169.159 50.7756 170.453 50.8043C171.851 50.8282 172.734 49.9959 172.763 48.5418C172.768 48.2787 172.777 48.0061 172.777 47.7382H172.753V25.2419H177.292L188.046 39.1424L187.765 32.881V25.2419H193.125Z" fill="url(#paint10_linear_5_373)"/>
<path d="M173.374 36.2341V47.5612C173.388 47.6186 173.397 47.676 173.397 47.7382C173.397 48.0108 173.393 48.2883 173.383 48.5561C173.345 50.3021 172.214 51.4309 170.505 51.4309C170.5 51.4309 170.433 51.4309 170.429 51.4309C168.825 51.3927 167.779 50.3451 167.627 48.6327C167.598 48.3409 167.589 48.0491 167.584 47.7621C167.569 47.3603 167.569 46.9585 167.569 46.5615V36.2341H163.603C163.613 41.6872 163.627 46.2601 163.656 47.719L163.708 49.8046C163.794 52.9281 166.906 55.5686 170.51 55.5686H170.538C170.872 55.5686 171.207 55.5399 171.541 55.492C174.853 54.9993 177.35 51.981 177.35 48.4748V36.2341H173.374Z" fill="url(#paint11_linear_5_373)"/>
<path d="M188.538 36.2341L188.667 39.1089C188.681 39.3816 188.514 39.6303 188.256 39.726C188.184 39.7547 188.113 39.7643 188.041 39.7643C187.85 39.7643 187.669 39.6782 187.545 39.5203L185.001 36.2341H180.466L188.896 47.1068H192.495V36.2341H188.538Z" fill="url(#paint12_linear_5_373)"/>
<path d="M207.349 36.172L216.212 25.6629V25.2419H209.955L202.938 33.962V25.2419H197.602V47.7382H202.938V38.6737L210.776 47.7382H217V47.1594L207.349 36.172Z" fill="white"/>
<path d="M206.733 36.2341H198.232V47.1115H202.313V38.6737C202.313 38.4106 202.475 38.1762 202.719 38.0853C202.79 38.0566 202.867 38.047 202.938 38.047C203.115 38.047 203.291 38.1236 203.411 38.2623L211.062 47.1115H216.122L206.876 36.5881C206.785 36.4876 206.742 36.3633 206.733 36.2341Z" fill="url(#paint13_linear_5_373)"/>
<path d="M41.7695 0.0239258L18.5674 21.3674H8.75391V0.0239258H41.7695Z" fill="white"/>
<path d="M48.5615 32.4648V48.6375C41.4257 55.8364 34.4618 62.8489 27.3594 70.0048V51.9667L48.5615 32.4648Z" fill="white"/>
<path d="M74.8472 0L54.5615 18.66V0H74.8472Z" fill="url(#paint14_linear_5_373)"/>
<path d="M48.5616 2.06152V24.1799L29.999 41.2613L22.9921 48.2786L0 28.2697L18.0662 30.1161L48.5616 2.06152Z" fill="url(#paint15_linear_5_373)"/>
<path d="M24.276 41.2041L48.5616 21.4153V24.1801L29.999 41.2615L22.9921 48.2788L0 28.2699L24.276 41.2041Z" fill="url(#paint16_linear_5_373)"/>
<path d="M74.8472 0L54.5615 18.66V16.5314L74.8472 0Z" fill="url(#paint17_linear_5_373)"/>
<path d="M48.5615 48.6375C41.4257 55.8364 34.4618 62.8489 27.3594 70.0048V57.9411L30.228 60.9164L48.5615 48.6375Z" fill="url(#paint18_linear_5_373)"/>
<path d="M41.7695 0.0239258L18.5674 21.3674H8.75391V11.2649L16.7632 16.7323L41.7695 0.0239258Z" fill="url(#paint19_linear_5_373)"/>
<defs>
<linearGradient id="paint0_linear_5_373" x1="160.034" y1="60.0884" x2="160.034" y2="28.0132" gradientUnits="userSpaceOnUse">
<stop stop-color="#DD5901"/>
<stop offset="1" stop-color="#FCD183"/>
</linearGradient>
<linearGradient id="paint1_linear_5_373" x1="155.724" y1="60.0883" x2="155.724" y2="28.0131" gradientUnits="userSpaceOnUse">
<stop stop-color="#DD5901"/>
<stop offset="1" stop-color="#FCD183"/>
</linearGradient>
<linearGradient id="paint2_linear_5_373" x1="160.715" y1="60.0884" x2="160.715" y2="28.0132" gradientUnits="userSpaceOnUse">
<stop stop-color="#DD5901"/>
<stop offset="1" stop-color="#FCD183"/>
</linearGradient>
<linearGradient id="paint3_linear_5_373" x1="69.5413" y1="46.6717" x2="69.5413" y2="35.2426" gradientUnits="userSpaceOnUse">
<stop stop-color="white"/>
<stop offset="1" stop-color="#231F20"/>
</linearGradient>
<linearGradient id="paint4_linear_5_373" x1="136.959" y1="46.4375" x2="136.959" y2="35.0085" gradientUnits="userSpaceOnUse">
<stop stop-color="white"/>
<stop offset="1" stop-color="#231F20"/>
</linearGradient>
<linearGradient id="paint5_linear_5_373" x1="84.112" y1="46.4375" x2="84.112" y2="35.0085" gradientUnits="userSpaceOnUse">
<stop stop-color="white"/>
<stop offset="1" stop-color="#231F20"/>
</linearGradient>
<linearGradient id="paint6_linear_5_373" x1="100.043" y1="46.4375" x2="100.043" y2="35.0085" gradientUnits="userSpaceOnUse">
<stop stop-color="white"/>
<stop offset="1" stop-color="#231F20"/>
</linearGradient>
<linearGradient id="paint7_linear_5_373" x1="115.807" y1="46.4375" x2="115.807" y2="35.0085" gradientUnits="userSpaceOnUse">
<stop stop-color="white"/>
<stop offset="1" stop-color="#231F20"/>
</linearGradient>
<linearGradient id="paint8_linear_5_373" x1="124.096" y1="46.4375" x2="124.096" y2="35.0085" gradientUnits="userSpaceOnUse">
<stop stop-color="white"/>
<stop offset="1" stop-color="#231F20"/>
</linearGradient>
<linearGradient id="paint9_linear_5_373" x1="152.265" y1="46.4375" x2="152.265" y2="35.0085" gradientUnits="userSpaceOnUse">
<stop stop-color="white"/>
<stop offset="1" stop-color="#231F20"/>
</linearGradient>
<linearGradient id="paint10_linear_5_373" x1="178.048" y1="60.0884" x2="178.048" y2="28.0133" gradientUnits="userSpaceOnUse">
<stop stop-color="#DD5901"/>
<stop offset="1" stop-color="#FCD183"/>
</linearGradient>
<linearGradient id="paint11_linear_5_373" x1="170.478" y1="46.6717" x2="170.478" y2="35.2426" gradientUnits="userSpaceOnUse">
<stop stop-color="#FCD183"/>
<stop offset="1" stop-color="#DD5901"/>
</linearGradient>
<linearGradient id="paint12_linear_5_373" x1="186.482" y1="46.6717" x2="186.482" y2="35.2426" gradientUnits="userSpaceOnUse">
<stop stop-color="#FCD183"/>
<stop offset="1" stop-color="#DD5901"/>
</linearGradient>
<linearGradient id="paint13_linear_5_373" x1="207.176" y1="46.6717" x2="207.176" y2="35.2426" gradientUnits="userSpaceOnUse">
<stop stop-color="white"/>
<stop offset="1" stop-color="#231F20"/>
</linearGradient>
<linearGradient id="paint14_linear_5_373" x1="74.079" y1="-10.5761" x2="24.2198" y2="45.4265" gradientUnits="userSpaceOnUse">
<stop stop-color="#DD5901"/>
<stop offset="1" stop-color="#FCD183"/>
</linearGradient>
<linearGradient id="paint15_linear_5_373" x1="64.4801" y1="-19.1221" x2="14.6208" y2="36.8804" gradientUnits="userSpaceOnUse">
<stop stop-color="#DD5901"/>
<stop offset="1" stop-color="#FCD183"/>
</linearGradient>
<linearGradient id="paint16_linear_5_373" x1="2.13797" y1="48.4152" x2="75.5219" y2="-24.8112" gradientUnits="userSpaceOnUse">
<stop stop-color="#DD5901"/>
<stop offset="1" stop-color="#FCD183"/>
</linearGradient>
<linearGradient id="paint17_linear_5_373" x1="13.3889" y1="59.6901" x2="86.7728" y2="-13.5363" gradientUnits="userSpaceOnUse">
<stop stop-color="#DD5901"/>
<stop offset="1" stop-color="#FCD183"/>
</linearGradient>
<linearGradient id="paint18_linear_5_373" x1="17.7584" y1="73.5935" x2="70.2918" y2="21.1729" gradientUnits="userSpaceOnUse">
<stop stop-color="white"/>
<stop offset="1" stop-color="#231F20"/>
</linearGradient>
<linearGradient id="paint19_linear_5_373" x1="14.6748" y1="16.2564" x2="53.4477" y2="-22.4333" gradientUnits="userSpaceOnUse">
<stop stop-color="white"/>
<stop offset="1" stop-color="#231F20"/>
</linearGradient>
</defs>
</svg>
